<svg width="240" height="136" viewBox="0 0 240 136" fill="none" xmlns="http://www.w3.org/2000/svg">
<path d="M27.9259 86.1234C34.8979 86.1234 40.5498 76.7663 40.5498 65.2238C40.5498 53.6813 34.8979 44.3242 27.9259 44.3242C20.9539 44.3242 15.302 53.6813 15.302 65.2238C15.302 76.7663 20.9539 86.1234 27.9259 86.1234Z" fill="#FC8001"/>
<path d="M27.9492 45.4863C26.4224 45.4835 24.9134 46.03 23.5267 47.0881C22.1401 48.1462 20.9089 49.6906 19.9184 51.6143C18.9279 53.538 18.2018 55.7952 17.7903 58.2294C17.3788 60.6637 17.2917 63.2169 17.5352 65.7124C18.8991 59.8151 22.6222 55.58 27.0068 55.58C30.6684 55.58 33.8704 58.531 35.6207 62.9406H35.6529C36.6732 62.897 37.668 63.4707 38.4511 64.5543C38.4803 64.0261 38.495 63.493 38.495 62.9503C38.495 58.3237 37.3848 53.8866 35.4088 50.6151C33.4327 47.3436 30.7526 45.5057 27.958 45.5057" fill="#FDCC01"/>
<path d="M38.4511 64.5534C37.668 63.4699 36.6732 62.8962 35.6529 62.9398H35.6207C32.5182 62.9737 29.2547 67.4366 28.3034 72.9414C27.8058 75.873 28.0692 78.5091 28.8888 80.336C28.5756 80.3844 28.2536 80.4135 27.9317 80.4135C25.4228 80.4167 22.9956 78.9378 21.0866 76.2427C19.1776 73.5477 17.9121 69.8134 17.5176 65.7116C17.1551 67.2967 16.9716 68.9786 16.9762 70.6736C16.9866 72.7457 17.2668 74.7896 17.7976 76.6662C18.3285 78.5427 19.0976 80.2076 20.0524 81.5474C21.5502 83.5224 23.2995 84.9079 25.1683 85.5991C27.037 86.2903 28.9763 86.2692 30.8393 85.5373C32.7024 84.8054 34.4406 83.3819 35.9226 81.3744C37.4045 79.3668 38.5914 76.8278 39.3936 73.9493C39.4667 73.6198 39.5341 73.2806 39.5926 72.9414C40.178 69.4282 39.6921 66.3367 38.4511 64.5534Z" fill="#FD0024"/>
<path d="M71.224 69.7339L72.0406 64.6944C72.0801 64.4482 72.0799 64.1892 72.0399 63.9433C72 63.6973 71.9217 63.4731 71.8129 63.293C71.7041 63.1129 71.5687 62.9833 71.4201 62.9171C71.2716 62.8509 71.1151 62.8505 70.9664 62.916L67.9224 64.2631C67.7747 64.3303 67.6402 64.4603 67.5323 64.6402C67.4243 64.8201 67.3467 65.0436 67.307 65.2885C67.2674 65.5334 67.2671 65.7913 67.3063 66.0364C67.3454 66.2815 67.4226 66.5055 67.5302 66.6859L69.7576 70.3735C69.8662 70.5529 70.0012 70.6821 70.1493 70.7483C70.2974 70.8144 70.4534 70.8152 70.6017 70.7505C70.75 70.6858 70.8855 70.5579 70.9947 70.3795C71.1039 70.2012 71.1829 69.9786 71.224 69.7339Z" fill="#FDCC01"/>
<path d="M106.977 63.5717V80.7837C106.977 80.8685 106.956 80.9498 106.92 81.0098C106.884 81.0698 106.835 81.1035 106.783 81.1035H104.354C104.303 81.1022 104.255 81.0679 104.219 81.0081C104.184 80.9483 104.164 80.8676 104.164 80.7837V65.0787C104.164 60.107 102.516 57.185 99.6885 57.185C96.9957 57.185 94.8854 60.2814 94.8854 65.1901V80.7837C94.8854 80.8676 94.8655 80.9483 94.8299 81.0081C94.7943 81.0679 94.7459 81.1022 94.6952 81.1035H92.2658C92.2151 81.1022 92.1667 81.0679 92.1311 81.0081C92.0955 80.9483 92.0755 80.8676 92.0756 80.7837V65.0787C92.0756 60.0876 90.4423 57.1801 87.6003 57.1801C84.966 57.1801 82.7796 60.1603 82.7796 65.1853V80.7788C82.7796 80.8628 82.7597 80.9434 82.7241 81.0033C82.6885 81.0631 82.6401 81.0974 82.5894 81.0986H80.1776C80.1266 81.0974 80.0779 81.0633 80.0418 81.0036C80.0057 80.9439 79.9851 80.8632 79.9844 80.7788V53.6428C79.9851 53.5588 80.0058 53.4787 80.042 53.4198C80.0781 53.3608 80.1268 53.3278 80.1776 53.3278H82.5718C82.6222 53.3278 82.6706 53.361 82.7063 53.4201C82.742 53.4791 82.762 53.5592 82.762 53.6428V55.959C82.7633 56.0221 82.7759 56.0832 82.7981 56.1345C82.8203 56.1858 82.8512 56.225 82.8869 56.2473C82.9226 56.2696 82.9615 56.2739 82.9986 56.2597C83.0358 56.2455 83.0696 56.2133 83.0957 56.1674C84.4333 53.6525 86.3592 52.7754 88.0978 52.7754C90.7321 52.7754 92.8248 54.6265 93.9517 57.7229C93.9685 57.7701 93.9925 57.8092 94.0212 57.8364C94.05 57.8636 94.0825 57.8779 94.1156 57.8779C94.1487 57.8779 94.1813 57.8636 94.21 57.8364C94.2388 57.8092 94.2627 57.7701 94.2795 57.7229C95.6523 54.0062 98.0611 52.7754 100.186 52.7754C104.216 52.7851 106.977 57.0978 106.977 63.5717Z" fill="white"/>
<path d="M126.675 66.8377C126.675 74.9834 123.089 80.8903 118.529 80.8903C116.167 80.8903 114.37 79.5045 113.111 77.319C113.085 77.2732 113.051 77.2416 113.013 77.2285C112.976 77.2153 112.937 77.2211 112.901 77.2452C112.866 77.2693 112.836 77.3105 112.815 77.3634C112.794 77.4164 112.783 77.4786 112.784 77.5419V91.3619C112.784 91.4455 112.763 91.5256 112.728 91.5847C112.692 91.6437 112.644 91.6769 112.593 91.6769H110.181C110.131 91.6769 110.082 91.6439 110.046 91.585C110.01 91.526 109.989 91.4459 109.988 91.3619V53.6671C109.989 53.5831 110.01 53.503 110.046 53.4441C110.082 53.3851 110.131 53.3521 110.181 53.3521H112.593C112.644 53.3521 112.692 53.3853 112.728 53.4444C112.763 53.5034 112.784 53.5835 112.784 53.6671V56.1335C112.783 56.1969 112.794 56.2591 112.815 56.3121C112.836 56.365 112.866 56.4062 112.901 56.4303C112.937 56.4544 112.976 56.4602 113.013 56.447C113.051 56.4339 113.085 56.4023 113.111 56.3565C114.37 54.171 116.167 52.7852 118.529 52.7852C123.089 52.7852 126.675 58.6921 126.675 66.8377ZM112.625 66.8377C112.625 72.3716 114.923 76.5292 118.216 76.5292C121.594 76.5292 123.806 72.168 123.806 66.8377C123.806 61.5074 121.541 57.1463 118.216 57.1463C114.891 57.1463 112.614 61.3282 112.614 66.8377H112.625Z" fill="white"/>
<path d="M158.347 59.049C158.335 59.0865 158.318 59.1193 158.298 59.1455C158.277 59.1716 158.254 59.1905 158.229 59.201C158.204 59.2114 158.178 59.2132 158.152 59.2063C158.127 59.1993 158.103 59.1837 158.081 59.1605C156.539 57.6704 154.788 56.8721 153.003 56.8442C150.772 56.8442 149.332 58.4045 149.332 60.8468C149.332 63.0031 150.503 63.9965 152.487 64.3938L154.375 64.7912C157.838 65.5568 159.878 67.97 159.878 72.4281C159.878 77.5645 157.1 80.8887 152.66 80.8887C150.699 80.8887 148.065 80.1279 145.946 77.6033C145.906 77.5548 145.879 77.4835 145.87 77.4037C145.861 77.3238 145.87 77.2412 145.896 77.172L146.994 74.2646C147.007 74.2269 147.025 74.1945 147.047 74.1693C147.069 74.1441 147.093 74.1269 147.119 74.1186C147.145 74.1104 147.172 74.1114 147.198 74.1215C147.224 74.1316 147.248 74.1506 147.269 74.1774C148.469 75.6311 150.07 76.8377 152.675 76.8377C155.35 76.8377 156.998 75.3839 156.998 72.7236C156.998 70.7369 155.935 69.4867 153.723 69.0312L151.838 68.6629C148.185 67.9264 146.417 65.1982 146.417 61.1133C146.417 55.9429 149.007 52.8223 152.967 52.8223C155.461 52.8223 157.744 53.8883 159.319 55.5795C159.359 55.6257 159.387 55.6947 159.399 55.7733C159.41 55.8519 159.404 55.9347 159.38 56.0059L158.347 59.049Z" fill="white"/>
<path d="M172.654 59.049C172.641 59.0866 172.624 59.1196 172.604 59.1458C172.583 59.1719 172.559 59.1909 172.534 59.2013C172.509 59.2117 172.483 59.2135 172.457 59.2065C172.431 59.1995 172.407 59.1838 172.385 59.1605C170.843 57.6688 169.092 56.8703 167.307 56.8442C165.076 56.8442 163.636 58.4045 163.636 60.8468C163.636 63.0031 164.807 63.9965 166.791 64.3938L168.679 64.7912C172.142 65.5568 174.182 67.97 174.182 72.4281C174.182 77.5645 171.404 80.8887 166.964 80.8887C165.003 80.8887 162.369 80.1279 160.25 77.6033C160.21 77.5548 160.183 77.4835 160.174 77.4037C160.165 77.3238 160.174 77.2412 160.2 77.172L161.298 74.2646C161.311 74.2269 161.329 74.1945 161.351 74.1693C161.373 74.1441 161.397 74.1269 161.423 74.1186C161.449 74.1104 161.476 74.1114 161.502 74.1215C161.528 74.1316 161.552 74.1506 161.573 74.1774C162.773 75.6311 164.377 76.8377 166.982 76.8377C169.657 76.8377 171.302 75.3839 171.302 72.7236C171.302 70.7369 170.239 69.4867 168.027 69.0312L166.142 68.6629C162.489 67.9264 160.721 65.1982 160.721 61.1133C160.721 55.9429 163.311 52.8223 167.271 52.8223C169.765 52.8223 172.048 53.8883 173.623 55.5795C173.663 55.625 173.692 55.694 173.704 55.7729C173.715 55.8518 173.708 55.935 173.684 56.0059L172.654 59.049Z" fill="white"/>
<path d="M57.5348 73.7802C57.4998 73.7228 57.4524 73.6906 57.4031 73.6906C57.3538 73.6906 57.3065 73.7228 57.2714 73.7802C54.8625 77.5501 51.4614 77.4387 49.2018 73.6978C46.8866 69.8648 46.8603 64.1033 49.2867 60.1056C51.6517 56.1902 55.0352 56.1515 57.3504 59.7712C57.3676 59.8002 57.3881 59.8233 57.4107 59.839C57.4333 59.8547 57.4576 59.8628 57.4821 59.8628C57.5067 59.8628 57.531 59.8547 57.5536 59.839C57.5762 59.8233 57.5967 59.8002 57.6139 59.7712L59.212 57.1254C59.2303 57.0953 59.2448 57.0594 59.2547 57.0199C59.2647 56.9804 59.2698 56.938 59.2698 56.8953C59.2698 56.8525 59.2647 56.8101 59.2547 56.7706C59.2448 56.7311 59.2303 56.6953 59.212 56.6651C55.7231 51.1168 50.639 51.1701 47.2642 56.7572C43.8455 62.417 43.8573 70.989 47.3491 76.77C50.7912 82.4686 55.8811 82.5849 59.3027 77.1673C59.3229 77.1365 59.3391 77.099 59.3501 77.0573C59.3611 77.0156 59.3668 76.9706 59.3668 76.9251C59.3668 76.8795 59.3611 76.8345 59.3501 76.7928C59.3391 76.7511 59.3229 76.7136 59.3027 76.6828L57.5348 73.7802Z" fill="white"/>
<path d="M63.4853 66.8281C63.5347 66.8268 63.5819 66.7937 63.6169 66.7358C63.6519 66.6779 63.6718 66.5998 63.6726 66.5179C63.7663 61.0374 66.219 57.1318 69.4153 57.1318C72.6905 57.1318 75.1608 61.1925 75.1608 66.8232C75.1608 72.3619 72.7842 76.345 69.5996 76.5146C69.5497 76.5159 69.5021 76.5497 69.467 76.6086C69.432 76.6675 69.4123 76.7469 69.4123 76.8296V80.5657C69.4123 80.6518 69.433 80.7344 69.4698 80.7952C69.5065 80.8561 69.5564 80.8903 69.6084 80.8903C74.4496 80.7304 78.0204 74.7363 78.0204 66.8377C78.0204 58.8278 74.3501 52.7852 69.4123 52.7852C64.5448 52.7852 60.892 58.6582 60.7896 66.4937C60.7892 66.5367 60.794 66.5795 60.8036 66.6194C60.8133 66.6594 60.8277 66.6957 60.846 66.7264C60.8642 66.7571 60.886 66.7814 60.9099 66.798C60.9339 66.8147 60.9597 66.8232 60.9857 66.8232L63.4853 66.8281Z" fill="white"/>
<path d="M144.037 53.3516H141.626C141.575 53.3529 141.527 53.3872 141.491 53.447C141.455 53.5069 141.435 53.5875 141.435 53.6715V56.0943C139.866 53.7976 137.837 52.5489 135.743 52.5909C130.907 52.5909 127.254 58.6674 127.254 66.8421C127.254 74.9006 130.805 80.9432 135.538 81.1176C135.59 81.1176 135.64 81.0834 135.676 81.0225C135.713 80.9616 135.734 80.8791 135.734 80.793V76.6596C135.734 76.6188 135.73 76.5784 135.721 76.5405C135.712 76.5026 135.698 76.4681 135.681 76.4388C135.664 76.4096 135.643 76.3862 135.621 76.37C135.598 76.3539 135.574 76.3452 135.549 76.3446C132.239 76.1944 129.88 72.1337 129.88 66.8421C129.88 61.4198 132.33 57.33 135.734 57.33C138.643 57.33 141.427 60.722 141.427 64.5404V80.7978C141.427 80.8818 141.447 80.9624 141.482 81.0223C141.518 81.0821 141.566 81.1164 141.617 81.1176H144.029C144.08 81.1164 144.128 81.0823 144.164 81.0226C144.2 80.9629 144.221 80.8822 144.222 80.7978V53.6715C144.221 53.5895 144.202 53.5109 144.168 53.4516C144.133 53.3922 144.087 53.3565 144.037 53.3516Z" fill="white"/>
<path d="M224.101 71.1102C222.119 71.1102 221.206 69.4288 221.206 66.1531V45.9609H215.13V60.9536C214.432 58.473 213.32 56.374 211.926 54.9032C210.532 53.4325 208.914 52.6512 207.261 52.6512C205.608 52.6512 203.989 53.4325 202.595 54.9032C201.201 56.374 200.09 58.473 199.392 60.9536V52.9485H193.403V67.0592C193.403 69.6032 192.595 71.3283 191.24 71.3283C189.885 71.3283 189.08 69.6032 189.08 67.0592V52.9485H183.007V67.1852C183.007 75.9075 186.226 81.3783 191.24 81.3783C195.259 81.3783 198.124 77.6907 199.064 71.7111C199.65 74.5154 200.747 76.9503 202.203 78.6815C203.659 80.4126 205.403 81.3551 207.196 81.3795C208.988 81.404 210.741 80.5091 212.214 78.8179C213.687 77.1266 214.808 74.722 215.422 71.934C216.3 78.3304 219.227 81.1651 223.161 81.1651H224.698V71.1102H224.101ZM207.268 71.3283C206.752 71.3292 206.247 71.0767 205.818 70.6027C205.389 70.1286 205.054 69.4544 204.856 68.6652C204.658 67.8761 204.607 67.0076 204.707 66.1696C204.808 65.3317 205.056 64.5619 205.421 63.9578C205.786 63.3537 206.251 62.9424 206.757 62.7759C207.263 62.6095 207.788 62.6954 208.264 63.0228C208.741 63.3502 209.148 63.9043 209.435 64.6151C209.721 65.3258 209.874 66.1613 209.873 67.0156C209.871 68.1582 209.595 69.2529 209.107 70.0609C208.619 70.8689 207.958 71.3245 207.268 71.3283Z" fill="white"/>
<path d="M179.197 74.834C178.667 74.834 178.212 74.6442 177.832 74.2646C177.453 73.8849 177.263 73.4301 177.263 72.9C177.263 72.37 177.453 71.9151 177.832 71.5355C178.212 71.1558 178.667 70.966 179.197 70.966C179.727 70.966 180.182 71.1558 180.561 71.5355C180.941 71.9151 181.131 72.37 181.131 72.9C181.131 73.251 181.041 73.5733 180.862 73.867C180.69 74.1607 180.457 74.3971 180.164 74.5762C179.877 74.7481 179.555 74.834 179.197 74.834Z" fill="white"/>
</svg>
