<svg width="200" height="69" viewBox="0 0 200 69" fill="none" xmlns="http://www.w3.org/2000/svg">
<path d="M23.2719 43.3503C29.0818 43.3503 33.7917 38.6404 33.7917 32.8304C33.7917 27.0205 29.0818 22.3105 23.2719 22.3105C17.4619 22.3105 12.752 27.0205 12.752 32.8304C12.752 38.6404 17.4619 43.3503 23.2719 43.3503Z" fill="#FC8001"/>
<path d="M23.2912 22.8965C22.0188 22.8951 20.7613 23.1702 19.6058 23.7028C18.4502 24.2354 17.4243 25.0127 16.5988 25.981C15.7734 26.9493 15.1683 28.0855 14.8254 29.3108C14.4825 30.5361 14.4099 31.8213 14.6128 33.0774C15.7495 30.109 18.852 27.9772 22.5058 27.9772C25.5571 27.9772 28.2255 29.4626 29.6841 31.6822H29.7109C30.5611 31.6602 31.3902 31.949 32.0427 32.4944C32.0671 32.2285 32.0793 31.9602 32.0793 31.6871C32.0793 29.3582 31.1542 27.1248 29.5075 25.4781C27.8608 23.8314 25.6273 22.9062 23.2985 22.9062" fill="#FDCC01"/>
<path d="M32.0428 32.4931C31.3903 31.9477 30.5612 31.6589 29.711 31.6809H29.6842C27.0987 31.6979 24.3791 33.9444 23.5864 36.7152C23.1718 38.1908 23.3913 39.5177 24.0742 40.4373C23.8132 40.4617 23.5449 40.4763 23.2766 40.4763C21.1859 40.4779 19.1633 39.7335 17.5724 38.3769C15.9816 37.0204 14.927 35.1407 14.5983 33.076C14.2962 33.8739 14.1432 34.7205 14.147 35.5737C14.1557 36.6167 14.3892 37.6455 14.8316 38.5901C15.274 39.5346 15.9149 40.3727 16.7106 41.047C17.9587 42.0412 19.4165 42.7386 20.9738 43.0865C22.5311 43.4344 24.1471 43.4238 25.6997 43.0554C27.2523 42.687 28.7008 41.9704 29.9357 40.96C31.1707 39.9495 32.1598 38.6714 32.8282 37.2225C32.8892 37.0567 32.9453 36.8859 32.9941 36.7152C33.4819 34.9468 33.077 33.3907 32.0428 32.4931Z" fill="#FD0024"/>
<path d="M59.3535 35.1009L60.0341 32.5642C60.067 32.4403 60.0668 32.31 60.0335 32.1862C60.0002 32.0624 59.9349 31.9495 59.8443 31.8589C59.7536 31.7682 59.6408 31.703 59.517 31.6697C59.3932 31.6364 59.2628 31.6362 59.1389 31.6691L56.6022 32.3472C56.4792 32.381 56.3671 32.4464 56.2771 32.537C56.1872 32.6275 56.1224 32.74 56.0894 32.8633C56.0564 32.9866 56.0561 33.1164 56.0888 33.2398C56.1214 33.3632 56.1857 33.4759 56.2754 33.5667L58.1315 35.4229C58.222 35.5132 58.3345 35.5782 58.458 35.6115C58.5814 35.6448 58.7113 35.6452 58.8349 35.6126C58.9585 35.58 59.0715 35.5157 59.1625 35.4259C59.2534 35.3361 59.3193 35.2241 59.3535 35.1009Z" fill="#FDCC01"/>
<path d="M89.1473 31.9988V40.6625C89.1473 40.7052 89.1304 40.7462 89.1002 40.7764C89.07 40.8066 89.029 40.8235 88.9863 40.8235H86.9619C86.9196 40.8229 86.8793 40.8056 86.8496 40.7755C86.82 40.7454 86.8033 40.7048 86.8033 40.6625V32.7574C86.8033 30.2548 85.4301 28.784 83.0739 28.784C80.8299 28.784 79.0713 30.3426 79.0713 32.8135V40.6625C79.0713 40.7048 79.0547 40.7454 79.0251 40.7755C78.9954 40.8056 78.9551 40.8229 78.9128 40.8235H76.8883C76.8461 40.8229 76.8057 40.8056 76.7761 40.7755C76.7464 40.7454 76.7298 40.7048 76.7298 40.6625V32.7574C76.7298 30.2451 75.3688 28.7816 73.0004 28.7816C70.8052 28.7816 68.9832 30.2817 68.9832 32.811V40.6601C68.9832 40.7024 68.9665 40.743 68.9369 40.7731C68.9072 40.8032 68.8669 40.8204 68.8246 40.8211H66.8148C66.7723 40.8204 66.7317 40.8033 66.7017 40.7732C66.6716 40.7432 66.6544 40.7026 66.6538 40.6601V27.0011C66.6544 26.9588 66.6717 26.9185 66.7018 26.8888C66.7319 26.8591 66.7725 26.8425 66.8148 26.8425H68.81C68.852 26.8425 68.8924 26.8592 68.9221 26.8889C68.9518 26.9187 68.9685 26.959 68.9685 27.0011V28.167C68.9696 28.1987 68.9801 28.2294 68.9986 28.2553C69.0171 28.2811 69.0429 28.3009 69.0726 28.3121C69.1023 28.3233 69.1347 28.3254 69.1657 28.3183C69.1966 28.3111 69.2248 28.295 69.2466 28.2718C70.3613 27.0059 71.9662 26.5645 73.415 26.5645C75.6102 26.5645 77.3542 27.4962 78.2933 29.0548C78.3073 29.0786 78.3272 29.0983 78.3512 29.1119C78.3751 29.1256 78.4023 29.1328 78.4298 29.1328C78.4574 29.1328 78.4846 29.1256 78.5085 29.1119C78.5325 29.0983 78.5524 29.0786 78.5664 29.0548C79.7104 27.184 81.7178 26.5645 83.4886 26.5645C86.8472 26.5693 89.1473 28.7401 89.1473 31.9988Z" fill="white"/>
<path d="M105.563 33.6418C105.563 37.7419 102.575 40.7152 98.7746 40.7152C96.8062 40.7152 95.3086 40.0176 94.2598 38.9176C94.2377 38.8945 94.2093 38.8786 94.1781 38.872C94.1469 38.8654 94.1144 38.8683 94.0849 38.8804C94.0554 38.8925 94.0302 38.9133 94.0127 38.9399C93.9951 38.9666 93.986 38.9979 93.9866 39.0298V45.9861C93.9866 46.0282 93.9699 46.0685 93.9401 46.0982C93.9104 46.128 93.8701 46.1447 93.828 46.1447H91.8182C91.7759 46.1447 91.7354 46.1281 91.7052 46.0984C91.6751 46.0687 91.6579 46.0284 91.6572 45.9861V27.0123C91.6579 26.97 91.6751 26.9297 91.7052 26.9C91.7354 26.8704 91.7759 26.8537 91.8182 26.8537H93.828C93.8701 26.8537 93.9104 26.8704 93.9401 26.9002C93.9699 26.9299 93.9866 26.9702 93.9866 27.0123V28.2538C93.986 28.2857 93.9951 28.317 94.0127 28.3436C94.0302 28.3703 94.0554 28.391 94.0849 28.4031C94.1144 28.4153 94.1469 28.4182 94.1781 28.4116C94.2093 28.4049 94.2377 28.3891 94.2598 28.366C95.3086 27.2659 96.8062 26.5684 98.7746 26.5684C102.575 26.5684 105.563 29.5416 105.563 33.6418ZM93.8549 33.6418C93.8549 36.4273 95.7696 38.52 98.5136 38.52C101.328 38.52 103.172 36.3248 103.172 33.6418C103.172 30.9588 101.284 28.7636 98.5136 28.7636C95.7427 28.7636 93.8451 30.8685 93.8451 33.6418H93.8549Z" fill="white"/>
<path d="M131.956 29.7222C131.946 29.741 131.932 29.7575 131.915 29.7707C131.898 29.7839 131.878 29.7934 131.857 29.7986C131.837 29.8039 131.815 29.8048 131.794 29.8013C131.772 29.7978 131.752 29.7899 131.734 29.7783C130.449 29.0282 128.99 28.6264 127.502 28.6124C125.644 28.6124 124.444 29.3977 124.444 30.6271C124.444 31.7125 125.419 32.2125 127.073 32.4125L128.646 32.6125C131.532 32.9979 133.232 34.2126 133.232 36.4565C133.232 39.042 130.917 40.7152 127.217 40.7152C125.583 40.7152 123.387 40.3323 121.622 39.0615C121.589 39.0371 121.566 39.0012 121.559 38.9611C121.551 38.9209 121.559 38.8792 121.58 38.8444L122.495 37.381C122.506 37.362 122.521 37.3457 122.539 37.333C122.557 37.3203 122.578 37.3117 122.6 37.3075C122.621 37.3034 122.643 37.3038 122.665 37.3089C122.686 37.314 122.707 37.3236 122.724 37.3371C123.724 38.0688 125.058 38.6761 127.229 38.6761C129.458 38.6761 130.832 37.9444 130.832 36.6053C130.832 35.6053 129.946 34.976 128.102 34.7467L126.532 34.5614C123.487 34.1906 122.014 32.8174 122.014 30.7612C122.014 28.1587 124.173 26.5879 127.473 26.5879C129.551 26.5879 131.454 27.1245 132.766 27.9757C132.799 27.999 132.823 28.0337 132.832 28.0733C132.842 28.1129 132.836 28.1546 132.817 28.1904L131.956 29.7222Z" fill="white"/>
<path d="M143.878 29.7222C143.868 29.7411 143.854 29.7577 143.836 29.7708C143.819 29.784 143.799 29.7935 143.778 29.7988C143.757 29.8041 143.735 29.8049 143.714 29.8014C143.693 29.7979 143.672 29.79 143.654 29.7783C142.369 29.0274 140.91 28.6255 139.422 28.6124C137.564 28.6124 136.364 29.3977 136.364 30.6271C136.364 31.7125 137.339 32.2125 138.993 32.4125L140.566 32.6125C143.452 32.9979 145.152 34.2126 145.152 36.4565C145.152 39.042 142.837 40.7152 139.137 40.7152C137.503 40.7152 135.307 40.3323 133.541 39.0615C133.509 39.0371 133.486 39.0012 133.478 38.9611C133.471 38.9209 133.478 38.8792 133.5 38.8444L134.415 37.381C134.426 37.362 134.441 37.3457 134.459 37.333C134.477 37.3203 134.498 37.3117 134.519 37.3075C134.541 37.3034 134.563 37.3038 134.585 37.3089C134.606 37.314 134.626 37.3236 134.644 37.3371C135.644 38.0688 136.981 38.6761 139.151 38.6761C141.381 38.6761 142.752 37.9444 142.752 36.6053C142.752 35.6053 141.866 34.976 140.022 34.7467L138.451 34.5614C135.407 34.1906 133.934 32.8174 133.934 30.7612C133.934 28.1587 136.093 26.5879 139.393 26.5879C141.471 26.5879 143.374 27.1245 144.686 27.9757C144.72 27.9987 144.744 28.0334 144.753 28.0731C144.763 28.1128 144.757 28.1547 144.737 28.1904L143.878 29.7222Z" fill="white"/>
<path d="M47.9458 37.1371C47.9166 37.1082 47.8772 37.092 47.8361 37.092C47.795 37.092 47.7555 37.1082 47.7263 37.1371C45.7189 39.0348 42.8847 38.9787 41.0017 37.0957C39.0723 35.1663 39.0504 32.2662 41.0724 30.254C43.0432 28.2832 45.8628 28.2636 47.7922 30.0857C47.8065 30.1003 47.8235 30.1119 47.8424 30.1198C47.8612 30.1277 47.8815 30.1318 47.9019 30.1318C47.9224 30.1318 47.9426 30.1277 47.9614 30.1198C47.9803 30.1119 47.9974 30.1003 48.0117 30.0857L49.3434 28.7539C49.3587 28.7387 49.3708 28.7207 49.3791 28.7008C49.3873 28.6809 49.3916 28.6596 49.3916 28.638C49.3916 28.6165 49.3873 28.5952 49.3791 28.5753C49.3708 28.5554 49.3587 28.5374 49.3434 28.5222C46.436 25.7294 42.1993 25.7562 39.387 28.5685C36.5381 31.4174 36.5478 35.7322 39.4577 38.6421C42.3261 41.5105 46.5677 41.569 49.419 38.8421C49.4359 38.8265 49.4493 38.8077 49.4585 38.7867C49.4677 38.7657 49.4725 38.743 49.4725 38.7201C49.4725 38.6972 49.4677 38.6745 49.4585 38.6535C49.4493 38.6326 49.4359 38.6137 49.419 38.5982L47.9458 37.1371Z" fill="white"/>
<path d="M52.9042 33.6369C52.9454 33.6363 52.9847 33.6196 53.0138 33.5905C53.043 33.5614 53.0596 33.522 53.0603 33.4808C53.1383 30.7222 55.1823 28.7562 57.8458 28.7562C60.5752 28.7562 62.6338 30.8002 62.6338 33.6345C62.6338 36.4224 60.6532 38.4273 57.9995 38.5127C57.9578 38.5133 57.9181 38.5303 57.8889 38.56C57.8597 38.5897 57.8434 38.6296 57.8434 38.6712V40.5518C57.8434 40.5951 57.8606 40.6367 57.8912 40.6674C57.9219 40.698 57.9634 40.7152 58.0068 40.7152C62.0411 40.6347 65.0168 37.6175 65.0168 33.6418C65.0168 29.6099 61.9581 26.5684 57.8434 26.5684C53.7871 26.5684 50.7431 29.5246 50.6577 33.4686C50.6574 33.4903 50.6614 33.5118 50.6695 33.5319C50.6775 33.552 50.6895 33.5703 50.7047 33.5857C50.7199 33.6012 50.7381 33.6134 50.758 33.6218C50.778 33.6302 50.7995 33.6345 50.8212 33.6345L52.9042 33.6369Z" fill="white"/>
<path d="M120.031 26.8542H118.021C117.979 26.8548 117.939 26.872 117.909 26.9022C117.88 26.9323 117.863 26.9729 117.863 27.0151V28.2347C116.555 27.0786 114.864 26.4501 113.119 26.4712C109.089 26.4712 106.045 29.5299 106.045 33.6447C106.045 37.7009 109.004 40.7425 112.948 40.8303C112.991 40.8303 113.033 40.8131 113.064 40.7824C113.094 40.7518 113.112 40.7102 113.112 40.6669V38.5863C113.112 38.5658 113.108 38.5454 113.101 38.5264C113.093 38.5073 113.082 38.4899 113.068 38.4752C113.053 38.4605 113.036 38.4487 113.017 38.4406C112.999 38.4324 112.978 38.4281 112.958 38.4278C110.199 38.3521 108.233 36.3082 108.233 33.6447C108.233 30.9153 110.275 28.8567 113.112 28.8567C115.536 28.8567 117.856 30.5641 117.856 32.4861V40.6693C117.856 40.7116 117.872 40.7522 117.902 40.7823C117.932 40.8124 117.972 40.8296 118.014 40.8303H120.024C120.066 40.8297 120.107 40.8125 120.137 40.7824C120.167 40.7524 120.184 40.7118 120.185 40.6693V27.0151C120.184 26.9739 120.168 26.9343 120.14 26.9045C120.111 26.8746 120.072 26.8566 120.031 26.8542Z" fill="white"/>
<path d="M186.751 35.7938C185.099 35.7938 184.338 34.9474 184.338 33.2986V23.1348H179.275V30.6814C178.693 29.4328 177.767 28.3762 176.605 27.6359C175.443 26.8956 174.095 26.5023 172.717 26.5023C171.34 26.5023 169.991 26.8956 168.829 27.6359C167.667 28.3762 166.741 29.4328 166.16 30.6814V26.652H161.169V33.7547C161.169 35.0352 160.496 35.9035 159.367 35.9035C158.237 35.9035 157.567 35.0352 157.567 33.7547V26.652H152.505V33.8181C152.505 38.2085 155.188 40.9622 159.367 40.9622C162.716 40.9622 165.103 39.1061 165.886 36.0962C166.375 37.5078 167.289 38.7334 168.502 39.6048C169.716 40.4762 171.169 40.9506 172.663 40.9629C174.157 40.9752 175.618 40.5247 176.845 39.6734C178.073 38.8222 179.007 37.6117 179.519 36.2084C180.25 39.428 182.689 40.8549 185.968 40.8549H187.248V35.7938H186.751ZM172.723 35.9035C172.293 35.904 171.873 35.7769 171.515 35.5383C171.157 35.2997 170.878 34.9603 170.713 34.5631C170.549 34.1659 170.505 33.7287 170.589 33.3069C170.673 32.8851 170.88 32.4976 171.184 32.1936C171.488 31.8895 171.876 31.6824 172.297 31.5987C172.719 31.5149 173.156 31.5581 173.554 31.7229C173.951 31.8877 174.29 32.1666 174.529 32.5244C174.767 32.8822 174.894 33.3027 174.894 33.7327C174.892 34.3079 174.663 34.8589 174.256 35.2656C173.849 35.6723 173.298 35.9016 172.723 35.9035Z" fill="white"/>
<path d="M148.612 41.5961C148.262 41.5961 147.961 41.4706 147.71 41.2196C147.459 40.9687 147.334 40.668 147.334 40.3176C147.334 39.9673 147.459 39.6666 147.71 39.4157C147.961 39.1647 148.262 39.0392 148.612 39.0392C148.963 39.0392 149.263 39.1647 149.514 39.4157C149.765 39.6666 149.891 39.9673 149.891 40.3176C149.891 40.5497 149.831 40.7627 149.713 40.9569C149.599 41.151 149.445 41.3072 149.251 41.4256C149.062 41.5392 148.849 41.5961 148.612 41.5961Z" fill="white"/>
</svg>
