<svg width="24" height="24" viewBox="0 0 24 24" fill="none" xmlns="http://www.w3.org/2000/svg">
<g clip-path="url(#clip0_66_913)">
<path d="M18.3 5.7107C17.91 5.3207 17.28 5.3207 16.89 5.7107L12 10.5907L7.10997 5.7007C6.71997 5.3107 6.08997 5.3107 5.69997 5.7007C5.30997 6.0907 5.30997 6.7207 5.69997 7.1107L10.59 12.0007L5.69997 16.8907C5.30997 17.2807 5.30997 17.9107 5.69997 18.3007C6.08997 18.6907 6.71997 18.6907 7.10997 18.3007L12 13.4107L16.89 18.3007C17.28 18.6907 17.91 18.6907 18.3 18.3007C18.69 17.9107 18.69 17.2807 18.3 16.8907L13.41 12.0007L18.3 7.1107C18.68 6.7307 18.68 6.0907 18.3 5.7107Z" fill="white"/>
</g>
<defs>
<clipPath id="clip0_66_913">
<rect width="24" height="24" fill="white"/>
</clipPath>
</defs>
</svg>
