<svg width="24" height="24" viewBox="0 0 24 24" fill="none" xmlns="http://www.w3.org/2000/svg">
<path d="M18.1074 12.8068C17.6658 12.8068 17.3037 13.1335 17.2419 13.5663C16.818 16.5424 13.9125 18.7238 10.689 17.9466C8.70197 17.4697 7.23595 15.9419 6.81205 13.946C6.0967 10.5283 8.70197 7.50792 11.9961 7.50792V9.97188C11.9961 10.3693 12.473 10.5636 12.7467 10.281L16.0938 6.93388C16.2705 6.75725 16.2705 6.48348 16.0938 6.30685L12.7467 2.95975C12.473 2.68598 11.9961 2.88027 11.9961 3.27768V5.74164C7.63337 5.74164 4.18912 9.69811 5.07226 14.2198C5.60215 16.9663 7.63337 19.0771 10.3623 19.6864C14.6278 20.6402 18.443 17.7435 18.9905 13.7959C19.07 13.2748 18.6373 12.8068 18.1074 12.8068ZM11.0246 15.4562V11.6852H10.9451L9.38198 12.2415V12.8509L10.274 12.5771V15.4562H11.0246ZM14.045 11.7293C13.886 11.6675 13.7182 11.641 13.5239 11.641C13.3296 11.641 13.1618 11.6675 13.0029 11.7293C12.8439 11.7911 12.7114 11.8883 12.6054 12.0208C12.4995 12.1532 12.4023 12.321 12.3493 12.5242C12.2963 12.7273 12.261 12.9657 12.261 13.2483V13.9019C12.261 14.1845 12.2963 14.4317 12.3582 14.626C12.42 14.8203 12.5083 14.9969 12.6231 15.1294C12.7379 15.2619 12.8704 15.359 13.0294 15.4209C13.1883 15.4827 13.3561 15.5092 13.5504 15.5092C13.7447 15.5092 13.9125 15.4827 14.0715 15.4209C14.2304 15.359 14.3629 15.2619 14.4689 15.1294C14.5748 14.9969 14.6632 14.8291 14.725 14.626C14.7868 14.4229 14.8133 14.1845 14.8133 13.9019V13.2483C14.8133 12.9657 14.778 12.7184 14.7161 12.5242C14.6543 12.3299 14.566 12.1532 14.4512 12.0208C14.3364 11.8883 14.1951 11.7911 14.045 11.7293ZM14.0538 13.999C14.0538 14.1668 14.045 14.3081 14.0185 14.4229C13.992 14.5377 13.9655 14.6349 13.9213 14.7055C13.8772 14.7762 13.8242 14.8291 13.7535 14.8556C13.6829 14.8821 13.6122 14.8998 13.5327 14.8998C13.4533 14.8998 13.3738 14.8821 13.312 14.8556C13.2501 14.8291 13.1883 14.7762 13.1442 14.7055C13.1 14.6349 13.0647 14.5377 13.0382 14.4229C13.0117 14.3081 13.0029 14.1668 13.0029 13.999V13.1424C13.0029 12.9746 13.0117 12.8333 13.0382 12.7184C13.0647 12.6036 13.0912 12.5153 13.1442 12.4447C13.1971 12.374 13.2413 12.321 13.312 12.2945C13.3826 12.268 13.4533 12.2504 13.5327 12.2504C13.6122 12.2504 13.6917 12.268 13.7535 12.2945C13.8153 12.321 13.8772 12.374 13.9213 12.4447C13.9655 12.5153 14.0008 12.6036 14.0273 12.7184C14.0538 12.8333 14.0626 12.9746 14.0626 13.1424V13.999H14.0538Z" fill="white"/>
</svg>
