<svg width="24" height="24" viewBox="0 0 24 24" fill="none" xmlns="http://www.w3.org/2000/svg">
<path d="M16.9421 13.4433C16.9701 13.5797 17.3988 18.0141 17.2433 18.8713C17.019 20.1135 15.4698 21 12.1518 21C8.95591 21 7.32358 19.9322 7.01068 18.6598C6.71135 17.4504 7.30369 13.3648 7.33263 13.2318C8.05519 9.84366 10.9608 9.66497 11.9646 9.65807H12.2766C13.2144 9.65807 16.2015 9.9835 16.9421 13.4433ZM5.04827 10.5455C5.34309 10.5455 5.86217 10.5601 6.42105 10.744C6.04576 11.3638 5.76451 12.0742 5.59268 12.877C5.58454 12.9159 4.8656 17.377 5.28159 19.0664C5.2843 19.0767 5.29154 19.0836 5.29425 19.094C5.03471 19.0741 4.76521 19.037 4.48397 18.9688C1.98709 18.3715 1.03935 17.1923 1.00589 16.5414C0.955244 15.5401 1.24734 13.5279 1.27086 13.42C1.8641 10.6361 4.09148 10.5455 4.8457 10.5455H5.04827ZM19.2129 10.5455C20.015 10.5506 22.1493 10.7034 22.729 13.42C22.7525 13.5279 23.0455 15.5401 22.9939 16.5414C22.9623 17.1923 22.0136 18.3715 19.5168 18.9697C19.3422 19.0103 19.1731 19.0422 19.0076 19.0646C19.1849 17.7215 18.7164 13.2594 18.6802 13.0894C18.4804 12.1519 18.1385 11.3629 17.7018 10.706C18.2127 10.5593 18.6793 10.5455 18.9524 10.5455H19.2129ZM19.0266 5.19001C20.3225 5.19001 21.3743 6.21725 21.3743 7.48533C21.3743 8.75254 20.3225 9.78064 19.0266 9.78064C17.7298 9.78064 16.6762 8.75254 16.6762 7.48533C16.6762 6.21725 17.7298 5.19001 19.0266 5.19001ZM4.97412 5.19001C6.27184 5.19001 7.32358 6.21725 7.32358 7.48533C7.32358 8.75254 6.27184 9.78064 4.97412 9.78064C3.6782 9.78064 2.62736 8.75254 2.62736 7.48533C2.62736 6.21725 3.6782 5.19001 4.97412 5.19001ZM12.1871 3C13.7995 3 15.1072 4.27671 15.1072 5.8521C15.1072 7.42835 13.7995 8.70593 12.1871 8.70593C10.5729 8.70593 9.26519 7.42835 9.26519 5.8521C9.26519 4.27671 10.5729 3 12.1871 3Z" fill="white"/>
</svg>
