<svg width="24" height="24" viewBox="0 0 24 24" fill="none" xmlns="http://www.w3.org/2000/svg">
<path d="M14.8793 3C16.1902 3 16.8457 3.821 16.8457 4.7615C16.8457 5.936 15.7071 7.0225 14.225 7.0225C12.9837 7.0225 12.2598 6.3475 12.294 5.2315C12.294 4.293 13.156 3.0005 14.8793 3.0005V3ZM10.8457 21C9.81087 21 9.05272 20.413 9.77663 17.8285L10.9641 13.2455C11.1707 12.513 11.2049 12.2185 10.9641 12.2185C10.6538 12.2185 9.31196 12.7245 8.5163 13.224L8 12.432C10.5163 10.4645 13.4109 9.3115 14.6533 9.3115C15.6875 9.3115 15.8592 10.457 15.3429 12.2185L13.9821 17.0355C13.7413 17.886 13.844 18.1795 14.0859 18.1795C14.3962 18.1795 15.4136 17.8265 16.413 17.093L17 17.8255C14.5522 20.118 11.8788 21 10.8457 21Z" fill="white"/>
</svg>
