<svg width="24" height="24" viewBox="0 0 24 24" fill="none" xmlns="http://www.w3.org/2000/svg">
<path d="M16.4733 13.38C16.6602 13.1968 16.809 12.9784 16.911 12.7374C17.0129 12.4964 17.0661 12.2376 17.0674 11.9759C17.0688 11.7142 17.0182 11.4548 16.9187 11.2128C16.8191 10.9707 16.6726 10.7508 16.4875 10.5658C16.3025 10.3807 16.0826 10.2342 15.8406 10.1347C15.5985 10.0351 15.3392 9.98456 15.0775 9.98588C14.8158 9.98721 14.5569 10.0404 14.3159 10.1424C14.0749 10.2443 13.8565 10.3931 13.6733 10.58C13.3082 10.9526 13.1049 11.4542 13.1075 11.9759C13.1101 12.4975 13.3185 12.9971 13.6874 13.3659C14.0563 13.7348 14.5558 13.9432 15.0775 13.9458C15.5991 13.9485 16.1008 13.7451 16.4733 13.38ZM8.29867 13.38C8.48558 13.1968 8.63432 12.9784 8.7363 12.7374C8.83827 12.4964 8.89146 12.2376 8.89278 11.9759C8.8941 11.7142 8.84353 11.4548 8.744 11.2128C8.64446 10.9707 8.49793 10.7508 8.31288 10.5658C8.12783 10.3807 7.90793 10.2342 7.6659 10.1347C7.42387 10.0351 7.16451 9.98456 6.90281 9.98588C6.64111 9.98721 6.38227 10.0404 6.14126 10.1424C5.90024 10.2443 5.68184 10.3931 5.49867 10.58C5.13354 10.9526 4.9302 11.4542 4.93283 11.9759C4.93547 12.4975 5.14386 12.9971 5.51274 13.3659C5.88161 13.7348 6.38115 13.9432 6.90281 13.9458C7.42447 13.9485 7.92609 13.7451 8.29867 13.38ZM12.414 6.50667C12.231 6.31924 12.0127 6.16998 11.7716 6.06756C11.5306 5.96513 11.2716 5.91157 11.0097 5.90997C10.7478 5.90837 10.4881 5.95878 10.2458 6.05826C10.0035 6.15774 9.7834 6.30432 9.59817 6.4895C9.41294 6.67468 9.26631 6.89479 9.16677 7.13706C9.06723 7.37933 9.01677 7.63895 9.0183 7.90086C9.01984 8.16278 9.07334 8.42179 9.17571 8.66287C9.27808 8.90396 9.42728 9.12233 9.61467 9.30533C9.9873 9.66925 10.4884 9.87162 11.0092 9.86857C11.53 9.86551 12.0287 9.65729 12.397 9.28903C12.7654 8.92078 12.9737 8.42218 12.9769 7.90133C12.9801 7.38049 12.7778 6.87939 12.414 6.50667ZM12.414 14.6813C12.231 14.4939 12.0127 14.3447 11.7716 14.2422C11.5306 14.1398 11.2716 14.0862 11.0097 14.0846C10.7478 14.083 10.4881 14.1334 10.2458 14.2329C10.0035 14.3324 9.7834 14.479 9.59817 14.6642C9.41294 14.8494 9.26631 15.0695 9.16677 15.3117C9.06723 15.554 9.01677 15.8136 9.0183 16.0755C9.01984 16.3374 9.07334 16.5965 9.17571 16.8375C9.27808 17.0786 9.42728 17.297 9.61467 17.48C9.9873 17.8439 10.4884 18.0463 11.0092 18.0432C11.53 18.0402 12.0287 17.832 12.397 17.4637C12.7654 17.0954 12.9737 16.5968 12.9769 16.076C12.9801 15.5552 12.7778 15.0541 12.414 14.6813ZM11.3847 11.5953C11.3323 11.5429 11.2702 11.5014 11.2017 11.473C11.1333 11.4446 11.06 11.43 10.9859 11.43C10.9118 11.4299 10.8385 11.4445 10.77 11.4728C10.7016 11.5011 10.6394 11.5426 10.587 11.595C10.5346 11.6474 10.493 11.7095 10.4647 11.7779C10.4363 11.8464 10.4217 11.9197 10.4216 11.9938C10.4216 12.0678 10.4362 12.1412 10.4645 12.2096C10.4928 12.2781 10.5343 12.3403 10.5867 12.3927C10.6924 12.4985 10.8358 12.558 10.9854 12.558C11.135 12.5581 11.2785 12.4987 11.3843 12.393C11.4902 12.2873 11.5496 12.1438 11.5497 11.9942C11.5498 11.8446 11.4904 11.7012 11.3847 11.5953ZM23.4247 11.166C21.2047 15.7747 17.9813 17.7847 15.668 18.6593C13.9547 19.3067 12.4933 19.4447 11.702 19.4647C11.47 19.486 11.2367 19.5 11.0007 19.5C6.858 19.5 3.5 16.142 3.5 12C3.5 7.858 6.858 4.5 11 4.5C15.1427 4.5 18.5 7.858 18.5 12C18.502 13.7118 17.9151 15.3722 16.838 16.7027C18.726 15.628 20.734 13.7813 22.2633 10.6073C22.3429 10.4628 22.4749 10.3542 22.632 10.3039C22.7892 10.2537 22.9597 10.2655 23.1084 10.337C23.2571 10.4086 23.3728 10.5344 23.4316 10.6885C23.4904 10.8427 23.4879 11.0136 23.4247 11.166Z" fill="white"/>
</svg>
