<svg width="14" height="16" viewBox="0 0 14 16" fill="none" xmlns="http://www.w3.org/2000/svg">
<path d="M13.098 9.61371L2.51337 15.5157C2.29019 15.6399 2.03842 15.7037 1.78301 15.7008C1.52759 15.6978 1.27738 15.6282 1.05714 15.4988C0.836896 15.3694 0.654264 15.1848 0.52732 14.9631C0.400375 14.7414 0.333521 14.4905 0.333374 14.235V2.43104C0.333456 2.17551 0.400297 1.92444 0.527276 1.70269C0.654255 1.48094 0.836965 1.29622 1.05731 1.16681C1.27765 1.03741 1.52797 0.967821 1.78349 0.964937C2.039 0.962053 2.29083 1.02598 2.51404 1.15037L13.098 7.05171C13.3262 7.17889 13.5162 7.36469 13.6484 7.58989C13.7807 7.81509 13.8505 8.07153 13.8505 8.33271C13.8505 8.59388 13.7807 8.85032 13.6484 9.07552C13.5162 9.30072 13.3262 9.48652 13.098 9.61371Z" fill="#1A1D29"/>
</svg>
