<svg width="24" height="24" viewBox="0 0 24 24" fill="none" xmlns="http://www.w3.org/2000/svg">
<path d="M18.098 13.6137L7.51337 19.5157C7.29019 19.6399 7.03842 19.7037 6.78301 19.7008C6.52759 19.6978 6.27738 19.6282 6.05714 19.4988C5.8369 19.3694 5.65426 19.1848 5.52732 18.9631C5.40038 18.7414 5.33352 18.4905 5.33337 18.235V6.43104C5.33346 6.17551 5.4003 5.92444 5.52728 5.70269C5.65426 5.48094 5.83697 5.29622 6.05731 5.16681C6.27765 5.03741 6.52797 4.96782 6.78349 4.96494C7.039 4.96205 7.29083 5.02598 7.51404 5.15037L18.098 11.0517C18.3262 11.1789 18.5162 11.3647 18.6484 11.5899C18.7807 11.8151 18.8505 12.0715 18.8505 12.3327C18.8505 12.5939 18.7807 12.8503 18.6484 13.0755C18.5162 13.3007 18.3262 13.4865 18.098 13.6137Z" fill="white"/>
</svg>
