<svg width="24" height="24" viewBox="0 0 24 24" fill="none" xmlns="http://www.w3.org/2000/svg">
<path d="M18.5667 10.0667H13.9333V5.43333C13.9333 4.92058 13.7296 4.42883 13.3671 4.06626C13.0045 3.70369 12.5128 3.5 12 3.5C11.4872 3.5 10.9955 3.70369 10.6329 4.06626C10.2704 4.42883 10.0667 4.92058 10.0667 5.43333V10.0667H5.43333C4.92058 10.0667 4.42883 10.2704 4.06626 10.6329C3.70369 10.9955 3.5 11.4872 3.5 12C3.5 12.5128 3.70369 13.0045 4.06626 13.3671C4.42883 13.7296 4.92058 13.9333 5.43333 13.9333H10.0667V18.5667C10.0667 19.0794 10.2704 19.5712 10.6329 19.9337C10.9955 20.2963 11.4872 20.5 12 20.5C12.5128 20.5 13.0045 20.2963 13.3671 19.9337C13.7296 19.5712 13.9333 19.0794 13.9333 18.5667V13.9333H18.5667C19.0794 13.9333 19.5712 13.7296 19.9337 13.3671C20.2963 13.0045 20.5 12.5128 20.5 12C20.5 11.4872 20.2963 10.9955 19.9337 10.6329C19.5712 10.2704 19.0794 10.0667 18.5667 10.0667Z" fill="white"/>
</svg>
