<svg width="24" height="24" viewBox="0 0 24 24" fill="none" xmlns="http://www.w3.org/2000/svg">
<path d="M11.9947 5.79455V3.35296C11.9947 2.95916 11.5222 2.76664 11.2509 3.04667L7.93419 6.36338C7.75917 6.5384 7.75917 6.80969 7.93419 6.98471L11.2509 10.3014C11.5222 10.5727 11.9947 10.3802 11.9947 9.99512V7.54479C15.2589 7.54479 17.8405 10.5377 17.1229 13.9244C16.7116 15.9109 15.1014 17.5124 13.1236 17.9237C9.99947 18.58 7.21659 16.436 6.79654 13.5394C6.74403 13.1193 6.37648 12.7955 5.93892 12.7955C5.41385 12.7955 4.99379 13.2593 5.0638 13.7844C5.60637 17.6262 9.26437 20.4703 13.4037 19.6652C16.1341 19.1314 18.3306 16.9348 18.8644 14.2044C19.7308 9.71508 16.3266 5.79455 11.9947 5.79455ZM11.0321 15.4209H10.2883V12.568L9.40439 12.8393V12.2354L10.9534 11.6841H11.0321V15.4209ZM14.7776 13.8806C14.7776 14.1607 14.7514 14.4057 14.6901 14.5982C14.6289 14.7908 14.5413 14.9658 14.4363 15.0971C14.3313 15.2283 14.1913 15.3246 14.0425 15.3859C13.8938 15.4471 13.7187 15.4734 13.5262 15.4734C13.3337 15.4734 13.1674 15.4471 13.0099 15.3859C12.8524 15.3246 12.7211 15.2283 12.6073 15.0971C12.4936 14.9658 12.4061 14.7995 12.3448 14.5982C12.2835 14.397 12.2485 14.1607 12.2485 13.8806V13.2331C12.2485 12.953 12.2748 12.708 12.336 12.5155C12.3973 12.3229 12.4848 12.1479 12.5898 12.0166C12.6948 11.8854 12.8349 11.7891 12.9836 11.7279C13.1324 11.6666 13.3074 11.6403 13.4999 11.6403C13.6925 11.6403 13.8587 11.6666 14.0163 11.7279C14.1738 11.7891 14.3051 11.8854 14.4188 12.0166C14.5326 12.1479 14.6201 12.3142 14.6814 12.5155C14.7426 12.7167 14.7776 12.953 14.7776 13.2331V13.8806ZM14.0338 13.128C14.0338 12.9618 14.025 12.8218 13.9988 12.708C13.9725 12.5942 13.9375 12.5067 13.8938 12.4367C13.85 12.3667 13.7975 12.3142 13.7275 12.2879C13.6575 12.2617 13.5875 12.2442 13.5087 12.2442C13.4299 12.2442 13.3512 12.2617 13.2899 12.2879C13.2287 12.3142 13.1674 12.3667 13.1236 12.4367C13.0799 12.5067 13.0449 12.5942 13.0186 12.708C12.9924 12.8218 12.9836 12.9618 12.9836 13.128V13.9769C12.9836 14.1432 12.9924 14.2832 13.0186 14.397C13.0449 14.5107 13.0799 14.607 13.1236 14.677C13.1674 14.747 13.2199 14.7995 13.2899 14.8258C13.3599 14.852 13.4299 14.8695 13.5087 14.8695C13.5875 14.8695 13.6662 14.852 13.7275 14.8258C13.7887 14.7995 13.85 14.747 13.8938 14.677C13.9375 14.607 13.9725 14.5107 13.99 14.397C14.0075 14.2832 14.025 14.1432 14.025 13.9769V13.128H14.0338Z" fill="white"/>
</svg>
