<svg width="24" height="24" viewBox="0 0 24 24" fill="none" xmlns="http://www.w3.org/2000/svg">
<path d="M14.5773 16.2247C11.9553 18.066 8.312 17.8153 5.968 15.4713C3.344 12.8473 3.344 8.59267 5.968 5.968C8.59267 3.344 12.848 3.344 15.472 5.968C17.69 8.186 18.0333 11.5693 16.502 14.148L19.542 17.1867C19.6659 17.3105 19.7641 17.4575 19.8312 17.6193C19.8982 17.7811 19.9327 17.9545 19.9327 18.1297C19.9327 18.3048 19.8982 18.4782 19.8312 18.64C19.7641 18.8018 19.6659 18.9488 19.542 19.0727L19.426 19.188C19.176 19.438 18.8369 19.5784 18.4833 19.5784C18.1298 19.5784 17.7907 19.438 17.5407 19.188L14.5773 16.2247ZM10.72 15.318C11.9395 15.318 13.109 14.8336 13.9713 13.9713C14.8336 13.109 15.318 11.9395 15.318 10.72C15.318 9.50053 14.8336 8.33102 13.9713 7.46872C13.109 6.60643 11.9395 6.122 10.72 6.122C9.50054 6.122 8.33102 6.60643 7.46872 7.46872C6.60643 8.33102 6.122 9.50053 6.122 10.72C6.122 11.9395 6.60643 13.109 7.46872 13.9713C8.33102 14.8336 9.50054 15.318 10.72 15.318Z" fill="white"/>
</svg>
