<svg width="24" height="24" viewBox="0 0 24 24" fill="none" xmlns="http://www.w3.org/2000/svg">
<path d="M12.56 7.97699H17.0413C17.7486 7.97699 18.4269 8.25794 18.927 8.75804C19.427 9.25814 19.708 9.93641 19.708 10.6437V17.3337C19.708 18.0409 19.427 18.7192 18.927 19.2193C18.4269 19.7194 17.7486 20.0003 17.0413 20.0003H6.91667C6.20942 20.0003 5.53115 19.7194 5.03105 19.2193C4.53095 18.7192 4.25 18.0409 4.25 17.3337V10.6437C4.25 9.93641 4.53095 9.25814 5.03105 8.75804C5.53115 8.25794 6.20942 7.97699 6.91667 7.97699H11.0573L8.40333 5.32299C8.33137 5.25107 8.27428 5.16568 8.23531 5.07169C8.19635 4.97771 8.17628 4.87697 8.17625 4.77522C8.17622 4.67348 8.19622 4.57273 8.23513 4.47872C8.27404 4.38471 8.33108 4.29929 8.403 4.22732C8.47492 4.15536 8.56031 4.09826 8.6543 4.0593C8.74828 4.02034 8.84902 4.00027 8.95076 4.00024C9.05251 4.0002 9.15326 4.02021 9.24727 4.05912C9.34128 4.09803 9.4267 4.15507 9.49867 4.22699L11.8087 6.53699L14.118 4.22699C14.2633 4.08165 14.4605 4 14.666 4C14.8715 4 15.0687 4.08165 15.214 4.22699C15.3593 4.37233 15.441 4.56945 15.441 4.77499C15.441 4.98053 15.3593 5.17765 15.214 5.32299L12.5593 7.97699H12.56ZM16.8453 13.1303C17.1491 13.1303 17.4404 13.0097 17.6552 12.7949C17.87 12.5801 17.9907 12.2888 17.9907 11.985C17.9907 11.6812 17.87 11.3899 17.6552 11.1751C17.4404 10.9603 17.1491 10.8397 16.8453 10.8397C16.5416 10.8397 16.2503 10.9603 16.0355 11.1751C15.8207 11.3899 15.7 11.6812 15.7 11.985C15.7 12.2888 15.8207 12.5801 16.0355 12.7949C16.2503 13.0097 16.5416 13.1303 16.8453 13.1303ZM16.8453 17.1377C16.998 17.1413 17.1499 17.1145 17.292 17.0586C17.4342 17.0027 17.5637 16.9189 17.673 16.8122C17.7823 16.7056 17.8692 16.5781 17.9285 16.4373C17.9878 16.2966 18.0183 16.1454 18.0183 15.9927C18.0183 15.8399 17.9878 15.6887 17.9285 15.548C17.8692 15.4072 17.7823 15.2798 17.673 15.1731C17.5637 15.0664 17.4342 14.9826 17.292 14.9267C17.1499 14.8709 16.998 14.844 16.8453 14.8477C16.5464 14.8549 16.2622 14.9787 16.0534 15.1926C15.8445 15.4066 15.7276 15.6937 15.7276 15.9927C15.7276 16.2916 15.8445 16.5788 16.0534 16.7927C16.2622 17.0066 16.5464 17.1304 16.8453 17.1377Z" fill="white"/>
</svg>
