<svg width="24" height="24" viewBox="0 0 24 24" fill="none" xmlns="http://www.w3.org/2000/svg">
<path d="M3.49036 10.109V13.891C3.49036 14.411 3.91584 14.8365 4.43587 14.8365H7.2724L10.3831 17.9472C10.9788 18.5429 12 18.1174 12 17.2759V6.71458C12 5.87308 10.9788 5.4476 10.3831 6.04327L7.2724 9.16345H4.43587C3.91584 9.16345 3.49036 9.58893 3.49036 10.109ZM16.2547 12C16.2547 10.3264 15.2903 8.88926 13.891 8.18958V15.8009C15.2903 15.1107 16.2547 13.6735 16.2547 12ZM13.891 4.86138V5.05048C13.891 5.40978 14.1274 5.7218 14.4583 5.85417C16.8977 6.82804 18.6185 9.22018 18.6185 12C18.6185 14.7798 16.8977 17.1719 14.4583 18.1458C14.1179 18.2782 13.891 18.5902 13.891 18.9495V19.1386C13.891 19.7343 14.4866 20.1503 15.035 19.9423C18.2403 18.7226 20.5095 15.6307 20.5095 12C20.5095 8.36923 18.2403 5.27741 15.035 4.0577C14.4866 3.84023 13.891 4.26571 13.891 4.86138Z" fill="white"/>
</svg>
